<svg width="21" height="21" viewBox="0 0 21 21" fill="none" xmlns="http://www.w3.org/2000/svg">
<path fill-rule="evenodd" clip-rule="evenodd" d="M0.427915 5.82304C0.460183 5.63481 0.545677 5.45975 0.674287 5.31857C0.802896 5.1774 0.969243 5.07599 1.15366 5.02636L19.7307 0.0371278C19.9063 -0.0101179 20.0915 -0.00858796 20.2663 0.0415492C20.4411 0.0916864 20.5989 0.188536 20.7227 0.321676C20.8466 0.454816 20.9318 0.619207 20.9692 0.797161C21.0066 0.975116 20.9947 1.1599 20.9349 1.33162L14.6178 19.5001C14.5551 19.6804 14.4421 19.839 14.2921 19.9571C14.1421 20.0752 13.9615 20.1479 13.7715 20.1666C13.5816 20.1853 13.3902 20.1493 13.2201 20.0628C13.0499 19.9762 12.9081 19.8428 12.8113 19.6782L8.2577 11.9172L0.846291 6.81602C0.68903 6.70772 0.566063 6.55666 0.491923 6.3807C0.417784 6.20474 0.395573 6.01122 0.427915 5.82304ZM10.2758 11.4057L13.4397 16.7978L17.7235 4.47746L10.2758 11.4057ZM16.3613 3.0131L8.91355 9.94135L3.7639 6.39643L16.3613 3.0131Z" fill="#ACC9EF"/>
</svg>
