<svg width="32" height="30" viewBox="0 0 32 30" fill="none" xmlns="http://www.w3.org/2000/svg">
<path fill-rule="evenodd" clip-rule="evenodd" d="M1.53312 1.96062e-07C1.12651 1.96062e-07 0.736558 0.158044 0.449042 0.439364C0.161525 0.720683 0 1.10223 0 1.50008C0 1.89793 0.161525 2.27948 0.449042 2.5608C0.736558 2.84212 1.12651 3.00016 1.53312 3.00016H2.25676C2.59317 3.0001 2.92026 3.10829 3.18762 3.30808C3.45497 3.50787 3.64775 3.78815 3.73622 4.10572L4.374 6.39485L7.66562 18.2005V21.0011C7.66562 22.0422 8.02591 22.9992 8.63149 23.7613C8.19805 24.2394 7.89669 24.818 7.75601 25.4421C7.61533 26.0663 7.64001 26.7152 7.8277 27.3274C8.01538 27.9395 8.35985 28.4946 8.82841 28.9399C9.29696 29.3852 9.87406 29.706 10.5049 29.8717C11.1358 30.0374 11.7994 30.0427 12.4329 29.8869C13.0664 29.7312 13.6488 29.4196 14.1246 28.9818C14.6004 28.5439 14.954 27.9944 15.1518 27.3852C15.3496 26.7761 15.3849 26.1276 15.2546 25.5014H20.0073C19.8882 26.074 19.9075 26.6659 20.0637 27.23C20.2199 27.794 20.5087 28.3145 20.907 28.7499C21.3052 29.1854 21.802 29.5238 22.3576 29.7381C22.9132 29.9523 23.5124 30.0366 24.1072 29.9842C24.702 29.9317 25.2761 29.744 25.7836 29.4359C26.2911 29.1279 26.718 28.7081 27.0303 28.2099C27.3426 27.7118 27.5315 27.1492 27.5821 26.5669C27.6328 25.9847 27.5436 25.3989 27.3218 24.8563C27.4813 24.6314 27.5748 24.368 27.5923 24.0948C27.6097 23.8215 27.5504 23.5488 27.4207 23.3062C27.291 23.0635 27.096 22.8603 26.8567 22.7184C26.6174 22.5765 26.3429 22.5014 26.0631 22.5012H12.2665C11.8599 22.5012 11.47 22.3432 11.1824 22.0619C10.8949 21.7805 10.7334 21.399 10.7334 21.0011V19.5011H26.4265C27.0993 19.5012 27.7535 19.2848 28.2882 18.8852C28.8229 18.4856 29.2084 17.9251 29.3854 17.2899L31.8921 8.28945C32.0161 7.84411 32.0335 7.37676 31.9428 6.92378C31.8522 6.47079 31.6559 6.04439 31.3693 5.67774C31.0827 5.3111 30.7135 5.01411 30.2904 4.80988C29.8673 4.60565 29.4018 4.49969 28.9301 4.50024H7.02478L6.69515 3.31518C6.42944 2.36274 5.851 1.52223 5.04896 0.923161C4.24692 0.324091 3.26579 -0.000291133 2.25676 1.96062e-07H1.53312ZM23.7634 25.5014C23.5601 25.5014 23.3651 25.5804 23.2214 25.7211C23.0776 25.8617 22.9969 26.0525 22.9969 26.2514C22.9969 26.4503 23.0776 26.6411 23.2214 26.7818C23.3651 26.9224 23.5601 27.0015 23.7634 27.0015C23.9667 27.0015 24.1617 26.9224 24.3055 26.7818C24.4492 26.6411 24.53 26.4503 24.53 26.2514C24.53 26.0525 24.4492 25.8617 24.3055 25.7211C24.1617 25.5804 23.9667 25.5014 23.7634 25.5014ZM26.4249 16.5009H10.3701L7.86033 7.5004H28.9316L26.4249 16.5009ZM11.4984 25.5014C11.2951 25.5014 11.1001 25.5804 10.9564 25.7211C10.8126 25.8617 10.7319 26.0525 10.7319 26.2514C10.7319 26.4503 10.8126 26.6411 10.9564 26.7818C11.1001 26.9224 11.2951 27.0015 11.4984 27.0015C11.7017 27.0015 11.8967 26.9224 12.0405 26.7818C12.1842 26.6411 12.265 26.4503 12.265 26.2514C12.265 26.0525 12.1842 25.8617 12.0405 25.7211C11.8967 25.5804 11.7017 25.5014 11.4984 25.5014Z" fill="#D8DDE2"/>
</svg>
