<svg width="113" height="113" viewBox="0 0 113 113" fill="none" xmlns="http://www.w3.org/2000/svg">
<circle cx="56.5" cy="56.5" r="56.5" fill="#ACC9EF"/>
<path fill-rule="evenodd" clip-rule="evenodd" d="M86.5283 29.7891C86.9208 30.0933 87.25 30.4726 87.4971 30.9052C87.7442 31.3379 87.9043 31.8154 87.9684 32.3105C88.0324 32.8056 87.999 33.3086 87.8702 33.7907C87.7414 34.2728 87.5197 34.7246 87.2177 35.1202L49.5449 84.5173C49.218 84.9457 48.8043 85.2989 48.3313 85.5533C47.8583 85.8076 47.337 85.9572 46.8021 85.9921C46.2673 86.027 45.7312 85.9463 45.2297 85.7556C44.7281 85.5648 44.2728 85.2683 43.8939 84.8858L25.0575 65.887C24.3713 65.1703 23.9916 64.2105 24.0001 63.2142C24.0087 62.2179 24.4049 61.2649 25.1034 60.5604C25.8019 59.8559 26.7468 59.4562 27.7345 59.4476C28.7223 59.4389 29.6739 59.8219 30.3845 60.5141L46.1882 76.4541L81.2428 30.4844C81.5444 30.0885 81.9204 29.7565 82.3494 29.5073C82.7783 29.258 83.2518 29.0965 83.7426 29.0319C84.2335 28.9673 84.7322 29.001 85.2102 29.1309C85.6881 29.2608 86.136 29.4845 86.5283 29.7891Z" fill="#243347"/>
</svg>
