<svg width="30" height="33" viewBox="0 0 30 33" fill="none" xmlns="http://www.w3.org/2000/svg">
<rect y="1" width="30" height="30" fill="#243347"/>
<path d="M13.8711 24.4336C13.1055 24.4336 12.4141 24.332 11.7969 24.1289C11.1797 23.9336 10.6484 23.6484 10.2031 23.2734C9.75 22.8984 9.40234 22.4531 9.16016 21.9375C8.92578 21.4219 8.80859 20.8516 8.80859 20.2266C8.80859 19.7031 8.89062 19.2109 9.05469 18.75C9.22656 18.2812 9.46484 17.875 9.76953 17.5312C10.0742 17.1875 10.4297 16.9219 10.8359 16.7344C11.2422 16.5391 11.6719 16.4414 12.125 16.4414C12.6875 16.4414 13.1602 16.582 13.543 16.8633C13.9258 17.1445 14.1641 17.5312 14.2578 18.0234C13.4219 18.0234 12.7578 18.2461 12.2656 18.6914C12.0312 18.9023 11.8477 19.1602 11.7148 19.4648C11.5898 19.7695 11.5273 20.1055 11.5273 20.4727C11.5273 21.1758 11.7305 21.7344 12.1367 22.1484C12.5508 22.5547 13.1055 22.7578 13.8008 22.7578C14.2148 22.7578 14.6016 22.6836 14.9609 22.5352C15.3203 22.3789 15.6328 22.168 15.8984 21.9023C16.1641 21.6367 16.3672 21.3203 16.5078 20.9531C16.6562 20.5781 16.7305 20.1797 16.7305 19.7578C16.7305 18.9766 16.4648 18.1641 15.9336 17.3203C15.7227 16.9922 15.4883 16.6719 15.2305 16.3594C14.9805 16.0391 14.6289 15.6172 14.1758 15.0938C13.7695 14.625 13.4297 14.2188 13.1562 13.875C12.8828 13.5312 12.6367 13.1797 12.418 12.8203C11.8867 11.9531 11.6211 11.1016 11.6211 10.2656C11.6211 9.64062 11.7539 9.0625 12.0195 8.53125C12.2852 7.99219 12.6641 7.52344 13.1562 7.125C13.6484 6.72656 14.2227 6.41797 14.8789 6.19922C15.5352 5.98047 16.2422 5.87109 17 5.87109C18.2891 5.87109 19.3242 6.17578 20.1055 6.78516C20.4805 7.08203 20.7656 7.4375 20.9609 7.85156C21.1641 8.26562 21.2656 8.72656 21.2656 9.23438C21.2656 9.89844 21.0977 10.4414 20.7617 10.8633C20.6055 11.0664 20.4102 11.2227 20.1758 11.332C19.9492 11.4414 19.707 11.4961 19.4492 11.4961C18.8477 11.4961 18.3594 11.2461 17.9844 10.7461C18.2891 10.5273 18.5273 10.2383 18.6992 9.87891C18.8789 9.51172 18.9688 9.12109 18.9688 8.70703C18.9688 8.19141 18.8164 7.78516 18.5117 7.48828C18.207 7.18359 17.7891 7.03125 17.2578 7.03125C16.9375 7.03125 16.6406 7.08984 16.3672 7.20703C16.1016 7.32422 15.875 7.49219 15.6875 7.71094C15.4922 7.92969 15.3398 8.1875 15.2305 8.48438C15.1289 8.78125 15.0781 9.10547 15.0781 9.45703C15.0781 9.95703 15.1953 10.4375 15.4297 10.8984C15.6641 11.3594 16 11.8398 16.4375 12.3398C16.8281 12.8008 17.25 13.2578 17.7031 13.7109C18.7578 14.8047 19.5039 15.8711 19.9414 16.9102C20.1992 17.5273 20.3281 18.207 20.3281 18.9492C20.3281 19.7305 20.168 20.457 19.8477 21.1289C19.5273 21.793 19.0703 22.3711 18.4766 22.8633C17.8828 23.3633 17.1914 23.75 16.4023 24.0234C15.6133 24.2969 14.7695 24.4336 13.8711 24.4336Z" fill="#D8DDE2"/>
</svg>
