<svg width="20" height="20" viewBox="0 0 20 20" fill="none" xmlns="http://www.w3.org/2000/svg">
<path fill-rule="evenodd" clip-rule="evenodd" d="M6.64804 12.9665C8.96604 15.2845 11.119 16.5765 12.721 17.2945C14.12 17.9215 15.771 17.4295 17.058 16.1425L17.352 15.8475L13.816 13.5975C13.144 14.5775 11.873 15.1525 10.604 14.6175C9.64304 14.2115 8.37104 13.5175 7.23404 12.3805C6.09704 11.2435 5.40404 9.97148 4.99804 9.01048C4.46204 7.74148 5.03604 6.47048 6.01704 5.79848L3.76704 2.26248L3.47204 2.55648C2.18504 3.84348 1.69404 5.49448 2.32004 6.89348C3.03804 8.49548 4.33004 10.6485 6.64804 12.9665ZM11.904 19.1195C10.089 18.3065 7.73204 16.8785 5.23404 14.3805C2.73604 11.8835 1.30804 9.52548 0.494043 7.71048C-0.580957 5.31048 0.401044 2.80048 2.05804 1.14248L2.35204 0.84748C2.56379 0.635598 2.82042 0.473984 3.10299 0.374575C3.38557 0.275166 3.68686 0.2405 3.98463 0.273137C4.28239 0.305774 4.56903 0.404881 4.82336 0.563139C5.07769 0.721396 5.29322 0.934762 5.45404 1.18748L8.28404 5.63748C8.359 5.75552 8.40837 5.88797 8.42896 6.02627C8.44955 6.16458 8.44091 6.30566 8.40359 6.44042C8.36627 6.57517 8.30111 6.70061 8.21231 6.80862C8.12351 6.91663 8.01304 7.00481 7.88804 7.06748L7.25504 7.38448C6.82304 7.60048 6.73504 7.98148 6.84004 8.23248C7.17904 9.03548 7.74604 10.0635 8.64804 10.9665C9.55104 11.8685 10.579 12.4355 11.382 12.7745C11.633 12.8805 12.014 12.7915 12.23 12.3595L12.547 11.7265C12.6096 11.6014 12.6977 11.4908 12.8057 11.4019C12.9137 11.313 13.0391 11.2478 13.1739 11.2103C13.3086 11.1729 13.4497 11.1642 13.5881 11.1847C13.7264 11.2052 13.8589 11.2546 13.977 11.3295L18.427 14.1605C18.6798 14.3213 18.8931 14.5368 19.0514 14.7912C19.2096 15.0455 19.3087 15.3321 19.3414 15.6299C19.374 15.9277 19.3394 16.229 19.2399 16.5115C19.1405 16.7941 18.9789 17.0507 18.767 17.2625L18.472 17.5565C16.815 19.2145 14.305 20.1955 11.904 19.1195Z" fill="#ACC9EF"/>
</svg>
