<svg width="28" height="28" viewBox="0 0 28 28" fill="none" xmlns="http://www.w3.org/2000/svg">
<path fill-rule="evenodd" clip-rule="evenodd" d="M7.77778 9.33345C7.77778 7.68323 8.43333 6.10059 9.60022 4.93371C10.7671 3.76682 12.3498 3.11127 14 3.11127C15.6502 3.11127 17.2329 3.76682 18.3998 4.93371C19.5667 6.10059 20.2222 7.68323 20.2222 9.33345C20.2222 10.9837 19.5667 12.5663 18.3998 13.7332C17.2329 14.9001 15.6502 15.5556 14 15.5556C12.3498 15.5556 10.7671 14.9001 9.60022 13.7332C8.43333 12.5663 7.77778 10.9837 7.77778 9.33345ZM19.9484 16.5247C21.4286 15.3003 22.4948 13.649 23.0017 11.7961C23.5086 9.94329 23.4315 7.97916 22.7808 6.17178C22.1301 4.36441 20.9376 2.80182 19.366 1.69727C17.7943 0.592718 15.9202 0 13.9992 0C12.0783 0 10.2041 0.592718 8.63249 1.69727C7.06087 2.80182 5.86834 4.36441 5.21765 6.17178C4.56696 7.97916 4.4898 9.94329 4.9967 11.7961C5.5036 13.649 6.56987 15.3003 8.05 16.5247C3.08933 18.2716 0 22.162 0 26.4445C0 26.857 0.163888 27.2527 0.455612 27.5444C0.747335 27.8361 1.143 28 1.55556 28C1.96811 28 2.36378 27.8361 2.6555 27.5444C2.94722 27.2527 3.11111 26.857 3.11111 26.4445C3.11111 22.9134 6.77444 18.6667 14 18.6667C21.2256 18.6667 24.8889 22.9134 24.8889 26.4445C24.8889 26.857 25.0528 27.2527 25.3445 27.5444C25.6362 27.8361 26.0319 28 26.4444 28C26.857 28 27.2527 27.8361 27.5444 27.5444C27.8361 27.2527 28 26.857 28 26.4445C28 22.162 24.9138 18.2716 19.9484 16.5247Z" fill="#D8DDE2"/>
</svg>
