<svg width="113" height="113" viewBox="0 0 113 113" fill="none" xmlns="http://www.w3.org/2000/svg">
<circle cx="56.5" cy="56.5" r="56.5" fill="#ACC9EF"/>
<path fill-rule="evenodd" clip-rule="evenodd" d="M56.5 23.3636C52.1485 23.3636 47.8396 24.2207 43.8193 25.886C39.799 27.5512 36.146 29.9921 33.0691 33.0691C29.9921 36.146 27.5512 39.799 25.886 43.8193C24.2207 47.8396 23.3636 52.1485 23.3636 56.5C23.3636 60.8515 24.2207 65.1604 25.886 69.1807C27.5512 73.201 29.9921 76.854 33.0691 79.9309C36.146 83.0079 39.799 85.4488 43.8193 87.114C47.8396 88.7793 52.1485 89.6364 56.5 89.6364C65.2883 89.6364 73.7167 86.1452 79.9309 79.9309C86.1452 73.7167 89.6364 65.2883 89.6364 56.5C89.6364 47.7117 86.1452 39.2833 79.9309 33.0691C73.7167 26.8548 65.2883 23.3636 56.5 23.3636ZM16 56.5C16 34.133 34.133 16 56.5 16C78.867 16 97 34.133 97 56.5C97 78.867 78.867 97 56.5 97C34.133 97 16 78.867 16 56.5ZM61.1023 73.9886C61.1023 75.2092 60.6174 76.3798 59.7543 77.2429C58.8912 78.106 57.7206 78.5909 56.5 78.5909C55.2794 78.5909 54.1088 78.106 53.2457 77.2429C52.3826 76.3798 51.8977 75.2092 51.8977 73.9886C51.8977 72.768 52.3826 71.5974 53.2457 70.7343C54.1088 69.8712 55.2794 69.3864 56.5 69.3864C57.7206 69.3864 58.8912 69.8712 59.7543 70.7343C60.6174 71.5974 61.1023 72.768 61.1023 73.9886ZM49.6334 45.322C50.6091 43.4664 53.1238 41.7727 56.5 41.7727C61.2238 41.7727 63.8636 44.847 63.8636 47.2955C63.8636 49.7439 61.2238 52.8182 56.5 52.8182C55.5235 52.8182 54.587 53.2061 53.8966 53.8966C53.2061 54.587 52.8182 55.5235 52.8182 56.5V60.1818C52.8182 61.1583 53.2061 62.0948 53.8966 62.7853C54.587 63.4757 55.5235 63.8636 56.5 63.8636C57.4765 63.8636 58.413 63.4757 59.1034 62.7853C59.7939 62.0948 60.1818 61.1583 60.1818 60.1818V59.7658C66.1905 58.3925 71.2273 53.7276 71.2273 47.2955C71.2273 39.5784 63.9741 34.4091 56.5 34.4091C50.819 34.4091 45.5466 37.2625 43.1129 41.9053C42.8745 42.3345 42.7243 42.8072 42.6712 43.2954C42.6182 43.7835 42.6633 44.2774 42.804 44.7479C42.9447 45.2183 43.1781 45.6559 43.4904 46.0349C43.8027 46.4138 44.1877 46.7264 44.6226 46.9543C45.0576 47.1822 45.5338 47.3208 46.0231 47.362C46.5124 47.4031 47.005 47.3459 47.4719 47.1938C47.9388 47.0417 48.3706 46.7978 48.7418 46.4763C49.113 46.1549 49.4162 45.7624 49.6334 45.322Z" fill="#243347"/>
</svg>
